<svg xmlns="http://www.w3.org/2000/svg" width="55.114" height="55.114" viewBox="0 0 55.114 55.114">
  <g id="Grupo_253" data-name="Grupo 253" transform="translate(-86 -444)">
    <path id="Caminho_207" data-name="Caminho 207" d="M27.557,0A27.557,27.557,0,1,1,0,27.557,27.557,27.557,0,0,1,27.557,0Z" transform="translate(86 444)" fill="#263763"/>
    <g id="ic_camera_alt_24px" transform="translate(101.682 461.223)">
      <circle id="Elipse_14" data-name="Elipse 14" cx="3.713" cy="3.713" r="3.713" transform="translate(7.89 7.89)" fill="#fff"/>
      <path id="Caminho_89" data-name="Caminho 89" d="M10.122,2,8,4.321H4.321A2.327,2.327,0,0,0,2,6.641V20.565a2.327,2.327,0,0,0,2.321,2.321H22.886a2.327,2.327,0,0,0,2.321-2.321V6.641a2.327,2.327,0,0,0-2.321-2.321H19.208L17.084,2ZM13.6,19.4a5.8,5.8,0,1,1,5.8-5.8A5.8,5.8,0,0,1,13.6,19.4Z" transform="translate(-2 -2)" fill="#fff"/>
    </g>
  </g>
</svg>
