<svg xmlns="http://www.w3.org/2000/svg" width="55.11" height="55.11" viewBox="0 0 55.11 55.11">
  <g id="Grupo_254" data-name="Grupo 254" transform="translate(-211 -444)">
    <path id="Caminho_206" data-name="Caminho 206" d="M27.555,0A27.555,27.555,0,1,1,0,27.555,27.555,27.555,0,0,1,27.555,0Z" transform="translate(211 444)" fill="#263763"/>
    <path id="ic_filter_24px" d="M16.692,10.744l-2.885,3.713-2.056-2.475-2.885,3.7H20.405ZM3.1,5.2H1V21.978a2.1,2.1,0,0,0,2.1,2.1H19.881v-2.1H3.1ZM21.978,1H7.294A2.1,2.1,0,0,0,5.2,3.1V17.783a2.1,2.1,0,0,0,2.1,2.1H21.978a2.1,2.1,0,0,0,2.1-2.1V3.1A2.1,2.1,0,0,0,21.978,1Zm0,16.783H7.294V3.1H21.978Z" transform="translate(226.071 459.071)" fill="#fff"/>
  </g>
</svg>
